<?xml version="1.0"?>
<svg
        style="enable-background:new 0 0 300 200;"
        version="1.1"
        viewBox="0 0 300 200"
        xml:space="preserve"
        xmlns="http://www.w3.org/2000/svg"
        xmlns:xlink="http://www.w3.org/1999/xlink"
>
  <style type="text/css">
    .st0 { display: none; }
    .st1 { display: inline; fill: #FFE3E3; }
    .st2 { fill: #646464; }
    .text { font-family: Arial; font-size: 24px; font-weight: 600;fill: #646464; }
  </style>

    <g class="st0" id="Layer_2">
    <rect class="st1" height="200" width="300" x="-0.8" y="0"/>
  </g>

    <g id="Layer_4" transform="scale(0.40) translate(100,-40)">
    <g>
      <path class="st2" d="M191.9,227.9c-17.5,0-31.7,14.2-31.7,31.7c0,17.5,14.2,31.7,31.7,31.7c17.5,0,31.7-14.2,31.7-31.7    C223.5,242.1,209.4,227.9,191.9,227.9z M185.1,267.7c-6,0-10.9-4.9-10.9-10.9c0-6,4.9-10.9,10.9-10.9c6,0,10.9,4.9,10.9,10.9    C196,262.8,191.1,267.7,185.1,267.7z M198.4,281.4c-3.6,0-6.5-2.9-6.5-6.5c0-3.6,2.9-6.5,6.5-6.5c3.6,0,6.5,2.9,6.5,6.5    C204.8,278.5,201.9,281.4,198.4,281.4z"/>

        <path class="st2" d="M317.3,227.9c-17.5,0-31.7,14.2-31.7,31.7c0,17.5,14.2,31.7,31.7,31.7c17.5,0,31.7-14.2,31.7-31.7    C349,242.1,334.8,227.9,317.3,227.9z M306.9,267.7c-6,0-10.9-4.9-10.9-10.9c0-6,4.9-10.9,10.9-10.9c6,0,10.9,4.9,10.9,10.9    C317.8,262.8,312.9,267.7,306.9,267.7z M326.9,281.4c-4.1,0-7.4-3.3-7.4-7.4c0-4.1,3.3-7.4,7.4-7.4c4.1,0,7.4,3.3,7.4,7.4    C334.3,278.1,331,281.4,326.9,281.4z"/>

        <path class="st2" d="M373.1,99.5c-10.8-4.1-19.2-6.1-25.8-6.1c-9.3,0-13.9,4.1-16.1,7.5c-0.8,1.2-1.3,2.4-1.7,3.6    c-37.5-11.8-73.8-12.5-75.7-12.5c-1.6,0-36.5,0.7-73.1,11.8c-0.4-1-0.9-1.9-1.5-2.9c-2.2-3.4-6.8-7.5-16.1-7.5    c-6.6,0-15,2-26.1,6.2c-4,1.6-96.9,41-96.9,96.8l0.1,1c0.1,1.1,3,27.9,8.7,55.1c9,43,19.1,61.4,33.9,61.4c0,0,0,0,0,0    c11.6,0,18.8-12,23.2-21.1l2-4.6c11,46.1,31.4,97.1,69.3,119.8c13.4,8,28.2,12.1,44.1,12.1c10.3,0,21.2-1.7,32.5-5.1    c29,8.7,54.9,6.3,77.2-7.4c38.2-23.3,58.7-75.4,69.6-123.2l3.4,8.1l0.2,0.4c4.4,9.1,11.5,21.1,23.2,21.1    c14.8,0,24.9-18.4,33.9-61.4c5.7-27.2,8.6-54,8.7-55.1l0.1-1C470.2,140.6,377.3,101.3,373.1,99.5z M89.7,285.2    c-3.4,6.9-5.8,9.5-6.9,10.4c-8.2-6.4-19.5-51.8-24.7-99.6c0.5-36.2,62-69.8,85.5-79.6c10.7-4.1,16.6-5,19.4-4.9    c-1.1,1.5-1.7,3.3-1.7,5.1L89.7,285.2z M321.8,392.2c-17.1,10.4-36.4,12.5-58.9,6.5v-24.2c31.8-14.8,30.5-32.3,30.5-32.3    c0-17.1-39.5-15.2-39.5-15.2s-39.6-1.9-39.5,15.2c0,0-1.3,17.5,30.5,32.3v24.2c-22.3,5.9-41.4,3.9-58.4-6.2    c-39-23.4-57.4-84.8-66-132.3c-0.1-0.3-0.2-0.6-0.3-1l57.7-135.8c36.8-12.8,75.7-13.6,75.8-13.6c0.4,0,41.3,0.8,79.1,14.7    l55.3,130.3C379.8,304.7,361.5,368,321.8,392.2z M427.5,295.6c-1.1-0.9-3.5-3.5-6.9-10.4l-14.9-35c0-0.1-0.1-0.2-0.1-0.3    l-58.7-138.2c0,0-0.1-0.2-0.1-0.3c2.7-0.1,8.6,0.6,19.6,4.9c23.8,9.9,85.3,43.5,85.8,79.7C447,243.8,435.7,289.2,427.5,295.6z"/>
    </g>
  </g>

    <text x="48%" y="185" text-anchor="middle" class="text">Нет изображения</text>
</svg>